<svg width="320" height="96" viewBox="0 0 320 96" xmlns="http://www.w3.org/2000/svg">
    <title>
        icons
    </title>
    <g fill="none" fill-rule="evenodd">
        <g stroke="#A0A0A0" fill="#FFF">
            <path d="M268.417 21.584c0 1.104-1.568 2-3.5 2-1.934 0-3.5-.896-3.5-2 0-1.105 1.566-2 3.5-2 1.932 0 3.5.895 3.5 2z" stroke-width="1.002"/>
            <path d="M275.89 17.55c0 1.144-1.87 2.07-4.172 2.07-2.304 0-4.172-.926-4.172-2.07 0-1.144 1.868-2.07 4.172-2.07 2.303 0 4.17.926 4.17 2.07z" stroke-width="1.376"/>
            <path d="M283 11c0 1.71-2.462 3.095-5.5 3.095S272 12.71 272 11c0-1.71 2.462-3.095 5.5-3.095S283 9.29 283 11z" stroke-width="1.832"/>
        </g>
        <g stroke="#A0A0A0" fill="#FFF">
            <path d="M295.583 53.584c0 1.105 1.568 2 3.5 2 1.934 0 3.5-.895 3.5-2s-1.566-2-3.5-2c-1.932 0-3.5.895-3.5 2z" stroke-width="1.002"/>
            <path d="M288.11 49.55c0 1.144 1.87 2.072 4.172 2.072 2.304 0 4.172-.928 4.172-2.072 0-1.143-1.868-2.07-4.172-2.07-2.303 0-4.17.927-4.17 2.07z" stroke-width="1.376"/>
            <path d="M281 43c0 1.71 2.462 3.095 5.5 3.095S292 44.71 292 43c0-1.71-2.462-3.094-5.5-3.094S281 41.29 281 43z" stroke-width="1.832"/>
        </g>
        <path d="M204 4s-5.056 12.797-6.25 15.623c-1.192 2.825.19 3.61 2.773 2.59C203.105 21.19 239 7 239 7V4l-38 15 6-15h-3z" fill="#A0A0A0"/>
        <path fill="#FFF" d="M201 19l6-15h32z"/>
        <path d="M231 36s5.056 12.797 6.25 15.623c1.192 2.825-.19 3.61-2.773 2.59C231.895 53.19 196 39 196 39v-3l38 15-6-15h3z" fill="#A0A0A0"/>
        <path fill="#FFF" d="M234 51l-6-15h-32z"/>
        <g>
            <path d="M186 48c0 5.523-4.477 10-10 10s-10-4.477-10-10 4.477-10 10-10 10 4.477 10 10z" fill="#2EAEDF"/>
            <path fill="#FFF" d="M170 49.5l4 4 7-7v-4l-7 7-2-2z"/>
        </g>
    </g>
</svg>
