<svg width="448" height="96" viewBox="0 0 448 96" xmlns="http://www.w3.org/2000/svg">
    <title>
        tosh
    </title>
    <g fill="none" fill-rule="evenodd">
        <g fill="#000">
            <path d="M169 9h7v2h-5v10h10v-5h2v7h-14z"/>
            <path d="M175 15.5l4.5-4.5-2-2h5.5v5.5l-2-2-4.5 4.5H175z"/>
        </g>
        <path fill="#FFF" d="M109 55h6l4-4v-6l-4-4h-6l-4 4v6z"/>
        <path fill="#FF5C59" d="M109 23h6l4-4v-6l-4-4h-6l-4 4v6z"/>
        <g fill="#FFF">
            <path d="M151 73v5.5l-2-2-2.5 2.5-.656-.656L145 77.5l2.5-2.5-2-2zM137 73h5.5l-2 2 2.5 2.5-1.5 1.5-2.5-2.5-2 2zM137 87v-5.5l2 2 2.5-2.5 1.5 1.5-2.5 2.5 2 2zM151 87h-5.5l2-2-2.5-2.5.656-.656.844-.844 2.5 2.5 2-2z"/>
        </g>
        <g fill="#FFF">
            <path d="M145 47v-5.5l2 2 2.5-2.5.656.656.844.844-2.5 2.5 2 2zM143 47h-5.5l2-2-2.5-2.5 1.5-1.5 2.5 2.5 2-2zM143 49v5.5l-2-2-2.5 2.5-1.5-1.5 2.5-2.5-2-2zM145 49h5.5l-2 2 2.5 2.5-.656.656-.844.844-2.5-2.5-2 2z"/>
        </g>
        <g fill="#000">
            <path d="M151 9v5.5l-2-2-2.5 2.5-.656-.656L145 13.5l2.5-2.5-2-2zM137 9h5.5l-2 2 2.5 2.5-1.5 1.5-2.5-2.5-2 2zM137 23v-5.5l2 2 2.5-2.5 1.5 1.5-2.5 2.5 2 2zM151 23h-5.5l2-2-2.5-2.5.656-.656.844-.844 2.5 2.5 2-2z"/>
        </g>
        <path fill="#FFF" d="M74 41l12 7-12 7z"/>
        <path fill="#FC0" d="M74 9l12 7-12 7z"/>
        <g fill="#FFF">
            <path d="M42 41h4v14h-4zM49 41h4v14h-4z"/>
        </g>
        <g fill="#FC0">
            <path d="M42 9h4v14h-4zM49 9h4v14h-4z"/>
        </g>
        <path fill="#FF9340" d="M42 87V73h2v14zM44 74s3-1 5 1 5 1 5 1v8s-3 1-5-1-5-1-5-1v-8z"/>
        <path d="M50.23 86.21h-1.906l-.398-7.632h2.703l-.399 7.633zm-2.335 2.673c0-.245.035-.452.105-.621.07-.17.168-.306.293-.41.125-.105.27-.18.437-.227.167-.047.347-.07.54-.07.182 0 .355.023.52.07a1.077 1.077 0 0 1 .73.637c.072.169.109.376.109.62 0 .235-.037.436-.11.602a1.156 1.156 0 0 1-.296.414c-.125.11-.27.19-.434.239a1.79 1.79 0 0 1-.52.074c-.192 0-.372-.025-.539-.074a1.117 1.117 0 0 1-.73-.652 1.544 1.544 0 0 1-.105-.602z" fill="#E40046"/>
        <g fill="#FF9340">
            <path d="M10 87V73h2v14zM12 74s3-1 5 1 5 1 5 1v8s-3 1-5-1-5-1-5-1v-8z"/>
        </g>
        <g fill="#FFF">
            <path d="M10 55V41h2v14zM12 42s3-1 5 1 5 1 5 1v8s-3 1-5-1-5-1-5-1v-8z"/>
        </g>
        <g fill="#1BB51D">
            <path d="M10 23V9h2v14zM12 10s3-1 5 1 5 1 5 1v8s-3 1-5-1-5-1-5-1v-8z"/>
        </g>
        <g fill="#000">
            <path d="M400 25.5l4-4h-3V18h-2v3.5h-3zM392 15h16v2h-16zM400 6.5l4 4h-3V14h-2v-3.5h-3z"/>
        </g>
        <path d="M373 23l-5-5-5 5-2-2 5-5-5-5 2-2 5 5 5-5 2 2-5 5 5 5z" fill="#000"/>
        <g fill="#000">
            <path d="M336 10h7v5h-7z"/>
            <path d="M329 10h5v2h-3v8h10v-3h2v5h-14z"/>
        </g>
        <g fill="#000">
            <path d="M427.5 23H425v-2.5l11.5-11 2 2z"/>
        </g>
        <g fill="#000">
            <path d="M329 42h7v5h7v7h-14z"/>
        </g>
    </g>
</svg>
